<?xml version="1.0" encoding="UTF-8"?>
<svg id="naruto" xmlns="http://www.w3.org/2000/svg" viewBox="0 0 645.57 567.67">
  <defs>
    <style>
      .cls-1 {
        fill: #fff;
      }

      .cls-2 {
        fill: #969696;
      }

      .cls-3 {
        fill: #e484b5;
      }
    </style>
  </defs>
  <g>
    <path class="cls-1" d="M75.83,178.04c-15.87-4.27-34.2,6.05-38.78,21.83-4.58,15.78,5.37,34.31,21.05,39.21-15.7,13.35-30.95,28.95-36.31,48.85s2.75,44.75,22.15,51.7c5.41,1.94,11.77,2.69,15.4,7.15,3.28,4.03,3.16,9.76,2.8,14.94-1.53,22.14-1.46,50.05,18.61,59.55,5.27,2.49,11.47,3.31,15.82,7.19,11.65,10.39.9,32.39,11.25,44.08,9.38,10.59,28.04,4.21,39.79,12.11,9.5,6.39,11.19,19.72,18.54,28.5,16.6,19.84,48.53,7.01,70.27-7.01,1.77,15.76,13.78,29.88,29.05,34.16s32.87-1.54,42.57-14.08c20.18,27.73,67.58,28.78,88.97,1.97,21.61,22.08,61.79,21.7,82.97-.78,5.64-5.98,10.74-13.64,18.81-15.22,6.06-1.18,12.12,1.49,18.21,2.57,17.14,3.05,35.64-8.5,40.43-25.23,1.37-4.8,1.75-9.93,3.89-14.44,3.25-6.84,9.98-11.2,15.79-16.06,17.54-14.7,28.03-35.93,38.03-56.53,5.63-11.6,11.4-23.91,10.32-36.76-1.08-12.84-11.89-25.81-24.68-24.27,14.34-11.76,18.13-34.51,8.38-50.29-3.79-6.13-9.46-11.66-10.02-18.84-.49-6.31,3.15-12.09,5.58-17.94,11-26.45-6.76-60.72-34.72-66.98-3.64-16.47-7.61-33.62-18.39-46.59-10.78-12.97-30.59-20.12-44.98-11.32-7.31-17.51-15.07-35.66-29.34-48.16-14.27-12.5-37.09-17.45-52.22-6-12.06-14.08-24.89-28.71-42.26-35.18-17.37-6.47-40.54-1.41-47.92,15.6-17.24-15.51-35.86-31.69-58.78-35.24-22.91-3.55-50.25,11.95-49.98,35.13-30.47-18.81-77.16,5.88-78.76,41.66-15.82,7.2-34.42,4.37-51.14,9.11-16.73,4.74-32.03,24.83-21.43,38.6-9.01-2.45-19.45,3.14-22.42,11.99-2.97,8.86,2,19.6,10.68,23.08"/>
    <path class="cls-2" d="M81.15,158.76c-26.61-6.48-55.63,9.1-63.38,35.8-7.82,26.92,9.3,55.09,35.02,63.81l-8.83-33.43c-27.67,23.65-53.73,58.86-40.34,97.2,3.16,9.04,7.77,17.52,14.64,24.31s15.7,11.12,25.25,13.98c.93.28,1.85.64,2.8.88,2.66.66-3.14-1.71-.85-.33,1.88,1.14-1.16-1.04-1.22-1.1-1.12-1.16-1.54-2.32-2.06-3.76,1.56,4.24-.35-.86.08-.74.15.04.06,2.76.05,3.18-.05,2.35-.27,4.7-.41,7.04-.4,7.16-.55,14.37.11,21.52,1.76,19.25,7.83,37.45,24.37,48.91,4.09,2.84,8.86,4.62,13.52,6.29,1.25.45,6.95,2.75,2.67.83.35.16,2.81,1.12.62.1-1.05-.92-1.01-.85.12.2l-1.64-2.22c.03-.17,1.02,1.92,1.17,1.99-1.9-.84-1.23-4.07-.77-1.53.14.74.36,1.57.55,2.31.86,3.36-.46-1.36-.22-1.67-.46.59.23,4.28.25,5.09.04,1.95.03,3.91.06,5.86.16,9.42,1.25,19.26,6.37,27.43,5.75,9.16,15.35,15.33,25.92,17.33,4.56.86,9.2,1.32,13.82,1.76.89.09,1.78.19,2.67.26,3.86.31-1.28-.03-1.34-.23.06.21,5.75,1.26,6.37,1.4,3.01.7-1.5.3-1.23-.59-.05.17,2.3,1.01,2.21,1.29.05-.14-3.18-2.26-1.43-1.01.73.52,2.89,1.73.66.45-1.91-1.09-.37-.49.39.7.49.77.94,1.55,1.38,2.34,1.01,1.82,1.9,3.7,2.8,5.58,4.78,10.07,10.57,18.89,19.95,25.28,8.47,5.77,19.31,8.33,29.48,8.06,19.94-.54,39.2-9.35,55.76-19.92l-30.09-17.27c1.74,13.17,6.01,24.04,14.41,34.41,7.24,8.94,17.66,15.52,28.63,18.83,21.85,6.59,48.34-1.17,62.72-19.02-10.47-1.35-20.94-2.7-31.41-4.05,14.66,19.59,36.16,30.55,60.68,31.32,21.96.7,45.56-8.06,59.7-25.31h-28.28c20.07,19.97,50.96,26.87,77.99,19,13.5-3.93,25.86-11.45,35.24-21.95,1.98-2.21,3.87-4.5,5.99-6.58.51-.5,1.1-.96,1.6-1.49,1.55-1.65-1.05,1.06-1.24.92.03.02,1.69-1,1.81-1.08.97-.51.82-.45-.46.17-.96.6-2.02.81-3.18.63.28,0,3.26-.26.98-.22-2.11.04.5.08.98.18,1.83.41,3.64.9,5.46,1.34,4.47,1.06,9.12,1.86,13.72,1.98,15.47.4,31.67-6.7,42.11-18.06,5.79-6.3,10.09-13.49,12.64-21.67,1.05-3.38,1.75-6.95,2.44-10.41.74-3.73-1.06,1.97.34-1.24.14-.32,1.43-2.74.11-.45-1.22,2.12.34-.32.84-.84,4.65-4.87,10.4-8.55,15.26-13.2,5.91-5.66,11.01-12.18,15.76-18.82,8.27-11.59,14.6-24.43,20.8-37.2,8.67-17.85,17.26-37.47,11.84-57.69-5.02-18.76-22.67-35.82-43.11-34.16,4.71,11.38,9.43,22.76,14.14,34.14,12.44-10.62,19.04-27.04,19.62-43.16.26-7.29-.96-14.99-3.63-21.78-1.71-4.35-3.56-8.34-6.21-12.17-1.06-1.53-6.48-7.37-6.06-9.08.04-.17.98,3.7.54,1.31s-.05,1.54-.05,1.62c-.13-3.79-.07-.59-.3.26.21-.79.58-1.66.71-2.46.33-2.05-.25.28-.43.74.41-1.08.99-2.15,1.46-3.19,1.28-2.82,2.55-5.67,3.67-8.56,2.59-6.71,3.73-14.2,3.77-21.37.08-14.07-4.38-28.93-12.39-40.52-9.71-14.04-23.46-25.06-40.3-29.1,4.66,4.66,9.31,9.31,13.97,13.97-4.7-21.17-10.84-44.3-27.44-59.51-17.58-16.12-43.79-22.73-65.31-10.35,9.79,3.98,19.59,7.97,29.38,11.95-9.92-23.72-20.37-47.28-41.88-62.8-19.32-13.94-48.95-17.8-69.06-3.32l24.24,3.13c-15.42-17.99-33.97-37.94-58.47-42.32s-52.23,3.19-63.13,26.79c10.47-1.35,20.94-2.7,31.41-4.05C326.54,21.44,299.33-1.55,267.03.08c-30.39,1.54-60.58,23-60.92,55.58l30.09-17.27c-21.7-12.97-48.53-11.2-70.39.36s-36.99,33.63-38.46,58.56c3.3-5.76,6.6-11.51,9.91-17.27,2.61-1.13.76-.39-.87.12-1.37.43-2.75.8-4.14,1.13-1.12.26-2.24.49-3.37.7,0,0-5.24.74-2.48.42s-2.56.23-2.53.23c-1.16.11-2.32.21-3.49.32-2.91.26-5.83.48-8.73.78-12.21,1.27-24.71,3.03-35.2,9.94-19.27,12.7-34.38,39.85-18.94,61.46,7.53-9.79,15.06-19.59,22.59-29.38-19.5-4.45-40.48,5.77-46.79,25.34-5.54,17.18,2.78,38.72,19.63,46.28,9.52,4.28,21.95,3.07,27.36-7.18,4.61-8.73,3.01-22.79-7.18-27.36-1.36-.61-5.8-3.89-1.46-.47-1.45-1.58-1.26-1.24.57,1.01-.5-.73-.95-1.5-1.35-2.29,1.07,2.76,1.27,3.12.58,1.06-.48-2.18-.46-1.71.06,1.4-.06-.88-.05-1.76.03-2.64-.47,2.9-.5,3.59-.1,2.07.44-1.44.18-.87-.79,1.7,1.13-1.82.83-1.56-.9.78.58-.67,1.2-1.3,1.86-1.88-2.34,1.71-2.61,1.98-.82.8,1.93-.99,1.55-.87-1.15.37.84-.28,1.69-.51,2.56-.68-3.14.34-3.6.47-1.37.39-3.12-.57-3.58-.61-1.39-.14,7.96,1.81,15.97-.62,21.02-7.17,4.53-5.87,6.18-15.75,1.56-22.21-1.04-1.46-2.82-6.15-.79-.64-.5-2.12-.48-1.49.08,1.89-.06-.78-.07-1.55-.03-2.33-.56,3.36-.63,3.96-.21,1.81.19-.79.41-1.57.68-2.33-1.29,2.85-1.47,3.29-.53,1.34.39-.76.82-1.51,1.27-2.23.46-.74.96-1.46,1.48-2.16-1.79,2.28-1.98,2.6-.57.96.94-.85,2.68-3.49,3.96-3.72-2.26,1.71-2.51,1.94-.75.7.76-.5,1.53-.97,2.32-1.42.78-.44,1.58-.85,2.4-1.24-2.75,1.1-3.1,1.28-1.08.54,2.12-.48,4.18-1.17,6.32-1.6,1.14-.23,2.28-.43,3.43-.61-2.44.3-2.48.31-.12.02,4.65-.46,9.31-.83,13.96-1.28,12.01-1.17,22.51-3.27,33.59-8.05,6.51-2.81,9.52-10.81,9.91-17.27.03-.54.49-4.52-.03-.92s.06-.06.23-.84c.42-1.92,1.05-3.75,1.63-5.62,1.2-3.9-2.15,4.06-.2.48.37-.68.69-1.39,1.07-2.07.94-1.72,2.03-3.31,3.1-4.95,2.26-3.44-3.07,3.35-.23.35.54-.57,1.04-1.18,1.57-1.76,1.35-1.44,2.77-2.81,4.26-4.11.45-.39.9-.77,1.37-1.15,1.17-.95.6-.51-1.7,1.3.56-.1,1.47-1.05,1.95-1.38,1.82-1.23,3.7-2.35,5.64-3.38.88-.47,1.79-.88,2.67-1.33,3.13-1.6-3.26.99-.93.38,1.9-.5,3.74-1.34,5.65-1.87s3.87-.78,5.78-1.27c2.26-.58-5.26.37-1.23.19.98-.04,1.95-.14,2.93-.17,1.95-.06,3.89.17,5.84.15,2.48-.02-4.75-.94-1.27-.2.95.2,1.91.37,2.85.59,1.92.46,3.71,1.16,5.58,1.74,2.26.71-4-2.11-1-.34,1.03.61,2.11,1.14,3.13,1.75,13.17,7.87,29.94-2.27,30.09-17.27-.01-.64,0-1.28.05-1.91.11-1.59-.02-.85-.38,2.21.47-.57.47-2.28.67-3,.23-.83.93-4.86.45-1.6-.42,2.85.06.13.64-.85.31-.53.63-1.04.98-1.54.85-1.23.41-.71-1.31,1.58.55-.1,1.67-1.92,2.05-2.31.72-.75,1.51-1.43,2.25-2.17,2.96-2.98-3.65,2.27-.06,0,2.01-1.28,4.01-2.48,6.12-3.59,3.87-2.04-.59.15-.58.18-.02-.14,3.56-1.21,3.73-1.27,1.05-.31,2.12-.59,3.19-.83.67-.15,5.31-1.2,1.88-.45-3.25.71.45.02,1.26-.02,1.3-.07,2.61-.08,3.91-.03l1.3.06c1.75.16,1.72.13-.09-.1-1.91-.29-1.84-.26.21.07l1.58.31c3.14.65,6.15,1.63,9.19,2.63,3.61,1.19-1.79-.97.38.08,1.2.58,2.41,1.12,3.6,1.72,2.87,1.46,5.65,3.07,8.36,4.79,2.28,1.45,4.52,2.98,6.71,4.57.48.35,4.76,3.73,1.16.82,1.06.86,2.14,1.7,3.19,2.57,4.85,3.97,9.52,8.14,14.19,12.33,8.72,7.83,25.7,8.31,31.41-4.05.44-.95.95-1.85,1.41-2.78.6-1.2,2-1.8.14-.51-2.99,2.07,2.67-1.61,2.54-2.41.07.46-3.78,2.48-1.15.92.87-.51,1.77-1.04,2.62-1.58,1.1-.7,2.7-.57.39-.34-2.98.3.18-.04,1.1-.34,1.81-.59,3.72-.82,5.53-1.38,2.3-.71-3.92.13-1.51.2,1.06.03,2.15-.16,3.21-.18.86-.02,1.72-.01,2.58.02.8.03,4.53.58,1.2-.04s2.69.59,3.64.85c1.49.4,3.87.8,5.11,1.74-3.1-2.35-1-.34.23.3.93.48,1.84.99,2.75,1.51,2.04,1.19,3.98,2.5,5.92,3.85,4.1,2.85-1.8-1.7.32.25.78.71,1.62,1.36,2.42,2.05,7.43,6.52,13.91,14.01,20.33,21.5,5.28,6.15,17.51,7.97,24.24,3.13.71-.51,4.56-2.3,4.75-2.95-2.48.96-3.02,1.18-1.61.65.43-.17.86-.32,1.3-.45.87-.28,1.75-.52,2.65-.73.7-.16,3.69-.44.74-.24s.19.07.79.04c1.94-.08,4.47.64,6.31.24-1.12.24-3.8-.72-1.1-.03.93.24,1.87.42,2.79.67s1.85.53,2.76.84c.37.12,4.28,1.95,1.66.57-2.48-1.3.41.28.89.53.86.44,1.7.91,2.53,1.4s1.64,1,2.45,1.54c.4.26.8.53,1.19.82,1.19.86.79.54-1.2-.95.19-.27,8.23,8.27,8.92,9.05-1.78-2.03-.87-1.2.29.43.62.88,1.23,1.76,1.83,2.66,1.19,1.8,2.32,3.65,3.4,5.52,2.32,4.01,4.4,8.15,6.35,12.35,1.04,2.23,2.04,4.48,3.01,6.74.17.4,1.59,3.67.6,1.38-1.1-2.57.88,2.11.89,2.12,2.51,6.01,5.39,10.35,11.58,12.96,5.86,2.47,12.21,2.2,17.8-1.01.79-.48,1.61-.92,2.45-1.32-2.69,1.08-3.01,1.27-.95.57.87-.25,1.74-.46,2.63-.63-3.09.35-3.52.43-1.28.25.91-.04,1.82-.04,2.73,0,1.8.15,1.82.12.08-.1-1.75-.27-1.72-.25.07.07.91.19,1.82.41,2.71.67.9.26,1.8.55,2.68.87-2.57-1.16-2.86-1.28-.85-.36,1.68.91,3.31,1.9,4.98,2.82,3.43,1.89-2.55-2.6.53.31,1.38,1.3,2.7,2.65,4.06,3.97,1.3,1.56,1.23,1.42-.21-.42.64.87,1.25,1.76,1.84,2.66.88,1.35,1.71,2.74,2.49,4.15,1.04,1.89,1.97,3.83,2.86,5.8-2.06-4.55.63,1.93.93,2.81,2.67,7.78,4.47,15.82,6.25,23.83,1.45,6.54,7.52,12.42,13.97,13.97,1.66.4,3.26.93,4.89,1.41,2.01.77,1.59.57-1.26-.59.76.35,1.52.72,2.26,1.11,1.49.79,2.87,1.74,4.32,2.59,1.73,1.23,1.39.94-1-.88.66.53,1.3,1.07,1.93,1.63,1.26,1.12,2.47,2.3,3.62,3.54.58.62,1.14,1.26,1.68,1.9,1.34,1.65,1.08,1.3-.78-1.04.08-.07,4.26,6.86,4.64,7.62.38.76.75,1.53,1.1,2.31-1.16-2.83-1.35-3.24-.58-1.23.51,1.62,1.09,3.21,1.53,4.86.29,1.09.37,4.16,1.05,4.96-.4-3.23-.48-3.75-.25-1.55.07.84.12,1.68.15,2.52.06,1.69-.07,3.35-.1,5.04-.21,2.2-.12,1.68.28-1.56-.13.83-.29,1.66-.47,2.48-.36,1.66-.92,3.25-1.37,4.88-.7,1.87-.56,1.61.42-.8-.36.8-.72,1.6-1.09,2.39-5.2,11.39-8.98,22.84-4.25,35.17,2.01,5.23,4.65,9.41,7.84,13.94,1.16,1.65,2.33,3.29,3.32,5.05.44.78.85,1.59,1.24,2.4-1.01-2.52-1.26-3.07-.75-1.66.41,1.5.85,3.04,1.3,4.52.41,2.2.39,1.75-.05-1.33.1.89.17,1.79.21,2.69.08,1.81-.04,3.6-.1,5.41-.23,2.23-.17,1.8.18-1.29-.16.89-.35,1.77-.57,2.65-.25.99-.79,4.57-1.65,5.15,1.17-2.69,1.28-3.06.34-1.09-.41.8-.85,1.58-1.32,2.35-.47.77-.96,1.52-1.48,2.25,1.8-2.24,2-2.54.61-.89-1.3,1.27-2.51,2.56-3.89,3.74-12.8,10.93-2.79,35.51,14.14,34.14l1.36-.11c2.25.06,1.8-.08-1.34-.42l1.28.29c2.05.68,1.69.47-1.1-.6l1.17.63c1.79,1.18,1.53.91-.77-.79.09.26,1.62,1.57,1.99,1.88,3.25,2.74-1.69-3.48.29.34.52,1,1.94,2.56,2.01,3.71l-.97-2.16c.31.89.57,1.78.79,2.69,1.3,3.88.21-4.46.06.55-.05,1.74-.03,3.46-.15,5.2.33-4.75-.24.69-.44,1.52-.68,2.87-1.69,5.6-2.62,8.38-1.81,5.46,1.71-3.45-.71,1.79-.74,1.61-1.48,3.23-2.24,4.84-1.44,3.04-2.92,6.06-4.41,9.07-5.59,11.36-11.66,22.22-18.76,32.71-3.01,4.45,2.64-2.99-.82,1.11-1.05,1.24-2.07,2.49-3.15,3.7-1.8,2.02-3.68,3.96-5.65,5.81-4.52,4.26-9.78,7.69-14.16,12.1-5.76,5.81-9.92,12.82-12.09,20.72-.88,3.22-1.29,6.55-2.24,9.76-.21.72-2.04,4.01-.4,1.46,1.77-2.75-1.24,1.87-1.53,2.42-2.07,3.92,2.98-2.83-.16.29-.96.95-1.95,1.93-2.88,2.91-3.02,3.19,2.64-1.57.3-.14-.98.59-1.89,1.27-2.89,1.84l-1.2.66c-1.97.95-1.62.86,1.05-.29-.69.69-2.96,1.05-3.88,1.31-1.1.3-2.22.49-3.32.75-1.54.27-.89.17,1.94-.28-.91.07-1.81.1-2.72.1l-1.36-.03c-2.23-.18-1.82-.1,1.24.26-1.46.23-4.04-.91-5.47-1.26-4.13-1.01-8.34-1.93-12.6-2.2-10.34-.67-19.38,3.21-27.19,9.63-4.21,3.46-7.48,7.7-11.22,11.62-.91.96-1.85,1.88-2.83,2.77l-.99.87c-1.65,1.36-1.33,1.13.97-.68.05.92-5.96,3.79-6.64,4.16-.28.15-3.36,1.88-3.53,1.71,2.78-1.15,3.15-1.33,1.14-.55-.62.23-1.24.44-1.86.64-2.73.89-5.49,1.46-8.28,2.08-4.52.99,4.72-.25.09-.01-1.32.07-2.63.2-3.95.24-1.22.04-8.67-1-9.22-.39l2.71.36c-.87-.14-1.73-.29-2.59-.47-1.29-.26-2.57-.56-3.84-.91s-2.52-.73-3.76-1.15c-.83-.28-1.65-.58-2.46-.9,2.76,1.2,3.15,1.35,1.18.45-2.32-1.23-4.62-2.4-6.81-3.87l-1.08-.74c-1.73-1.26-1.42-1.02.93.74-.49.18-3.46-3.15-3.88-3.57-7.1-7.07-21.4-8.4-28.28,0-1.3,1.59-2.66,3.12-4.14,4.54-.58.56-1.22,1.08-1.8,1.65-2.85,2.78,2.66-1.6.72-.48-1.57.9-3,2.07-4.57,2.98s-4.14,1.57-5.42,2.73c1.13-1.02,3.98-1.46.81-.46-.78.24-1.54.52-2.32.76-1.96.6-3.94,1.02-5.94,1.47s-3.42-.38,1.07-.04c-.77-.06-1.67.19-2.45.25-2.05.17-4.1.25-6.15.22-1.84-.02-3.71-.36-5.53-.31-2.37.06,5.11.97,1.05.14-.8-.16-1.61-.29-2.41-.46-2-.42-3.98-.94-5.93-1.56-.78-.25-1.54-.55-2.31-.79-3.93-1.22,2.93,1.51.83.41-1.8-.94-3.63-1.76-5.39-2.79-1.12-.66-3.32-2.91-4.55-3.01,1.22.1,3.33,2.93.75.45-.73-.7-1.5-1.36-2.22-2.08-1.18-1.18-5.19-6.26-1.66-1.55-3.91-5.22-7.97-8.66-14.61-9.55-5.73-.77-12.93.69-16.8,5.5-1.21,1.5-2.46,2.93-3.86,4.26-.7.66-1.41,1.29-2.16,1.9l1.76-1.39c-.53,1.18-3.84,2.31-4.92,2.97-3.65,2.21,3.28-.83-.51.25-1.85.53-3.7,1.02-5.55,1.53-4.21,1.14,3.65.07-.38.04-.89,0-5.17.65-5.74-.06,2.94.47,3.29.51,1.05.12-.71-.14-1.41-.3-2.1-.49-.7-.17-1.39-.37-2.08-.6-2.07-.76-1.82-.6.76.46-1.38-.16-3.25-1.65-4.42-2.38-4.29-2.66,1.66,2-1.16-.7-1.22-1.17-2.46-2.27-3.6-3.52-3.39-3.72,1.05,2.32-.86-1.05-.81-1.44-1.64-2.96-2.52-4.36-.65-1.34-.47-.84.54,1.5-.35-.89-.67-1.79-.96-2.71-.38-1.2-1.55-7.55-.77-1.71-.96-7.26-3.21-13.35-9.91-17.27-5.99-3.5-14.23-3.81-20.19,0-2.96,1.89-5.97,3.71-9.05,5.4-1.48.81-2.98,1.6-4.49,2.36-.87.43-1.74.86-2.62,1.28-.56.27-4.38,2.07-1.6.78,2.41-1.12-2.08.8-3,1.13-1.79.65-3.6,1.24-5.43,1.77-1.57.45-3.15.85-4.74,1.2-.67.14-1.35.26-2.02.41-4.53.96,4.53-.17,0,0-1.52.06-3.02.18-4.54.15-.64-.01-1.27-.07-1.91-.07-3.51,0,1.26-.07,1.59.28-.54-.58-3.84-.95-4.75-1.2-.83-.23-2.39-.27.13.1,2.85.42.12-.2-.87-.67-2.74-1.32,1.68,0,1,.94,0,0-1.35-1.19-1.44-1.29-.59-.63-1.18-1.36-1.83-1.91-1.94-1.63,1.84,3.06.64.78-1.74-3.3-3.62-6.47-5.22-9.86-3.75-7.94-8.28-15.25-15.32-20.69-8.35-6.45-17.74-8.4-28-9.55-1.56-.17-3.11-.31-4.67-.46-.88-.08-1.77-.23-2.66-.26-2.18-.08,1.97.23,2.05.31-.55-.62-4.11-.76-5-1.01-.37-.1-2.21-.83-2.35-.77l2.56,1.02-1.06-.6-1.02-.67,2.15,1.55c-2.28-1.86,1.45-.09.78,1.2.05-.1-1.37-2.17-1.15-2.08.51.2.98,3.82.96,1.99,0-.67-.32-1.73-.59-2.35-.75-1.76.35,1.95.23,2.26.45-1.15-.31-4.51-.34-5.75-.2-7.82.14-15.93-2.09-23.53-2.97-10.11-9.74-18.57-19.32-23.1-3.01-1.42-6.13-2.58-9.27-3.68-.75-.26-1.51-.58-2.28-.79-2.66-.72,2.4,1.61.5.24-.26-.18-3.36-2.31-3.72-2.22,1.57-.37,3.06,2.85,1.27.86-.64-.71-1.33-1.5-2.04-2.13-1.45-1.28,1.33,1.52,1.31,1.73.02-.2-1.09-1.64-1.29-1.98-.41-.68-.75-1.41-1.16-2.09-1.19-1.96.71-1.03.51,1.46.08-1.02-1.13-3.15-1.42-4.11-.55-1.84-.99-3.71-1.36-5.59-.12-.63-.17-1.32-.34-1.93-.74-2.6.41,4.11.17,1.39-.13-1.56-.31-3.11-.41-4.67-.23-3.6-.28-7.22-.21-10.83.15-8.7,1.45-17.24-.33-25.88-2.63-12.84-12.47-20.88-24.32-25-1.85-.64-3.74-1.13-5.61-1.71-.4-.12-1.68-.77-2.07-.68,1.75-.43,3.47,1.82,1.27.51-1.2-.71-2.48-1.69-3.75-2.25-2.23-.98,2.68,2.7,1.13.83-.64-.78-1.53-1.41-2.23-2.15-.23-.24-1.58-1.88-1.64-1.87.5-.1,2.44,3.7.9,1.03-.93-1.61-1.81-3.4-2.81-4.96-1.37-2.15,1.06,3.74.5,1.24-.22-1.01-.74-2.06-1.04-3.06-.51-1.67-.83-3.37-1.24-5.06-.88-3.63.41,1.21.13,1.43.26-.2-.24-2.92-.25-3.27-.08-1.75.01-3.49.03-5.24.01-1.32,1.04-2.98-.05-.59-1.27,2.8.06-.21.27-1.19.39-1.87.91-3.72,1.5-5.54.19-.57.59-2.39,1.05-2.96-1.5,1.88-.9,1.96.16-.25s2.14-4.18,3.36-6.19c1.09-1.8,2.31-3.5,3.46-5.26.48-.73,2.29-3.01-.28.25.82-1.04,1.66-2.06,2.52-3.07,6.04-7.12,12.92-13.46,20.01-19.52,5.3-4.53,6.92-13,5.14-19.46-1.93-7.03-7.25-11.69-13.97-13.97-2.05-.73-1.69-.54,1.08.56-.79-.38-1.57-.79-2.33-1.24-.76-.45-1.49-.93-2.2-1.44,2.28,1.82,2.61,2.03.99.62-.65-.6-1.27-1.22-1.86-1.87-1.39-1.63-1.19-1.31.62.97-.81-.09-2.36-3.85-2.77-4.52-.93-1.96-.8-1.58.4,1.14-.31-.83-.59-1.67-.84-2.52-.16-.56-.7-3.83-.87-3.87.38,3.14.49,3.6.32,1.38-.03-.88-.03-1.76.02-2.63.19-2.22.1-1.75-.25,1.39.16-.87.37-1.73.62-2.58.7-2.06.49-1.71-.64,1.05.36-.8.76-1.58,1.19-2.35.43-.76.9-1.51,1.4-2.23-1.84,2.27-2.07,2.58-.69.94.94-.92,1.89-1.87,2.81-2.8,1.65-1.38,1.34-1.15-.92.67.73-.51,1.47-.98,2.24-1.43.76-.45,1.54-.87,2.34-1.26-2.77,1.09-3.14,1.25-1.11.47.4-.12,5.11-1.36,5.11-1.37-3.15.36-3.61.44-1.39.24.88-.05,1.75-.06,2.63-.04,2.22.16,1.76.05-1.38-.33.87.15,1.74.34,2.59.57,10.15,2.47,22.15-3.22,24.6-13.97s-3.09-21.96-13.97-24.6h0Z"/>
  </g>
  <g>
    <path class="cls-1" d="M454.28,427.36c-42.63,15.99-91.05,14.3-133.67-1.73-42.62-16.04-79.45-45.86-106.63-82.38-8.07-10.84-15.42-22.46-19.26-35.41-4.91-16.55-3.78-34.4.15-51.2,4.17-17.84,11.55-35.11,22.95-49.45,25.49-32.08,71.02-46.21,110.54-35.38,39.52,10.83,71.17,45.43,79.68,85.51,4.99,23.5.74,51.58-19.04,65.22-23.65,16.32-55.86,4.62-81.45-8.45"/>
    <path class="cls-3" d="M448.96,408.07c-6.65,2.45-13.41,4.55-20.31,6.2-3.44.82-6.91,1.54-10.39,2.16-1.74.31-3.49.58-5.24.85,4.8-.74-2.62.28-3.47.36-14.15,1.39-28.36,1.07-42.48-.58,4.17.49.2.02-.84-.14-1.46-.23-2.92-.47-4.38-.73-3.5-.62-6.98-1.33-10.45-2.14-7.5-1.74-14.9-3.91-22.15-6.49-2.63-.94-5.22-1.97-7.82-2.97-5.04-1.93,3.77,1.75-1.14-.47-1.46-.66-2.93-1.3-4.39-1.98-6.3-2.93-12.46-6.17-18.45-9.68-5.08-2.97-10.03-6.15-14.87-9.5-2.64-1.83-5.22-3.74-7.8-5.65-4.33-3.21,3.13,2.61-1.03-.82-1.65-1.36-3.33-2.7-4.97-4.08-9.85-8.29-19.05-17.35-27.53-27.04-2.12-2.42-4.2-4.88-6.23-7.38-1.01-1.25-2.01-2.52-3.01-3.77,2.54,3.18.7.91.19.22-4.51-6.13-8.91-12.31-12.61-18.97-.85-1.54-1.67-3.1-2.45-4.68-.25-.51-2.48-5.83-.84-1.64-1.31-3.33-2.42-6.73-3.27-10.21-.29-1.19-.51-2.4-.78-3.6-1.32-5.72.13,3.88-.35-1.97-.35-4.31-.54-8.59-.38-12.91.07-1.85.19-3.7.35-5.55.04-.5.85-6.56.17-2.06.56-3.67,1.27-7.31,2.11-10.93,1.57-6.73,3.72-13.23,6.09-19.71,1.94-5.3-1.8,3.52.66-1.55.75-1.55,1.45-3.11,2.23-4.64,1.55-3.06,3.23-6.05,5.05-8.96,1.51-2.43,3.14-4.77,4.82-7.09-2.5,3.45.39-.43.82-.94,1.26-1.48,2.56-2.93,3.91-4.34,2.01-2.1,4.12-4.12,6.32-6.03,1.01-.88,2.17-2.16,3.35-2.8-4.33,2.34-.36.31.6-.38,4.75-3.38,9.79-6.35,15.03-8.9,1.23-.6,2.65-1.48,3.97-1.84-4.95,1.33-.43.22.63-.18,2.74-1.03,5.51-1.95,8.32-2.76s5.65-1.51,8.52-2.1c1.19-.24,2.39-.47,3.59-.67,5.33-.91-3.01.16,1.2-.2,5.84-.51,11.64-.82,17.51-.52,1.46.08,2.91.18,4.37.32l1.45.15c2.26.27,1.93.22-.97-.15,2.54-.3,6.08,1.08,8.6,1.69,2.82.68,5.61,1.49,8.36,2.42,1.37.46,2.71.99,4.07,1.46,4.66,1.61-3.91-1.91.54.19,5.44,2.57,10.71,5.35,15.74,8.69,1,.66,1.99,1.34,2.97,2.04.84.6,4.95,3.05.57.33,2.37,1.47,4.54,3.73,6.59,5.62,4.41,4.06,9.53,8.66,12.76,13.76-2.37-3.74-1.1-1.45-.5-.59.82,1.19,1.68,2.35,2.5,3.55,1.62,2.39,3.15,4.85,4.59,7.36s2.78,5.07,4.03,7.68c.61,1.28,1.33,2.6,1.79,3.95-1.81-5.32.26.92.63,1.94,2.1,5.88,3.54,11.87,4.71,18,.91,4.78-.29-4.61.01.27.12,1.89.31,3.76.37,5.66.11,3.32-.12,6.6-.27,9.91-.21,4.69.66-3.39.12-.43-.29,1.61-.55,3.21-.91,4.8-.5,2.18-1.15,7.65-2.84,9.2l.95-2.28c-.38.82-.77,1.63-1.19,2.43-.83,1.6-1.84,3.07-2.74,4.62-2.27,3.9,3-3.05-.11.22-1.24,1.3-2.51,2.57-3.76,3.86-2.5,2.57.67-.26.88-.53-1.04,1.35-3.59,2.43-5.07,3.23l-1.35.7c-2.03.95-1.81.87.65-.22-1.12,1.02-4.23,1.38-5.68,1.72s-5.22,2.08-.54.28c-1.62.62-4.28.33-6,.34-1.52,0-3.05-.04-4.57-.14-1.03-.07-2.05-.16-3.07-.27,2.75.4,2.97.43.68.07-6.87-1.37-13.54-3.11-20.12-5.53-1.53-.56-3.05-1.17-4.57-1.77-2.1-.86-2.01-.82.27.12-.99-.43-1.98-.87-2.97-1.32-3.39-1.54-6.74-3.18-10.06-4.87-9.32-4.73-22.12-2.76-27.36,7.18-4.81,9.11-2.79,22.31,7.18,27.36,29.06,14.75,62.69,26.69,94.3,12.53,28.36-12.71,40.29-46.22,37.91-75.46-4.68-57.35-51.13-110.29-108.87-118.52-29.78-4.25-60.35,1.12-86.3,16.72-27.93,16.79-46.73,43.88-56.23,74.76-5,16.26-7.98,34.1-6.44,51.11,1.69,18.69,7.98,35.81,18.27,51.48,17.28,26.32,39.44,48.96,64.49,67.89,51.46,38.88,118.76,55.75,182.1,41.6,7.78-1.74,15.41-4.04,22.9-6.8,9.79-3.61,17.49-13.72,13.97-24.6-3.11-9.6-14.09-17.85-24.6-13.97h0Z"/>
  </g>
</svg>