<?xml version="1.0" encoding="UTF-8"?>
<svg id="volume" xmlns="http://www.w3.org/2000/svg" viewBox="0 0 573.62 345.95">
  <defs>
    <style>
      .cls-1 {
        fill: none;
      }

      .cls-1, .cls-2 {
        stroke: #282929;
        stroke-linecap: round;
        stroke-width: 46px;
      }

      .cls-2 {
        fill: #282929;
      }
    </style>
  </defs>
  <path class="cls-1" d="M451.04,88.47c11.18,9.58,16.77,16.74,22.96,26.35,6.62,10.27,11.8,18.79,14.41,27.39,4.74,15.57,9,45.3,10.4,59.35,1.44,14.43-8.96,26.39-21.93,37.18-10.63,7.62-17.8,14.8-23.62,21.01-1.4,1.41-2.99,2.6-4.62,5.02"/>
  <path class="cls-2" d="M294.06,98.93c-8.23,3.86-18.59,12.88-27.6,18.82-9.39,6.19-27.82,16.6-36.54,21.76l-12.86,48.89c-3.01-.17-6.49-1.05-10.3-2.13l-2.02-38.36c-30.08-.79-51.12-.41-68.41.79-29.5,2.05-49.9.8-53.09,2.39-13.65,6.78-1.23,40.73.56,63.29.39,4.85,4.16,6.25,7.36,6.67,19.52,2.55,43.56-4.79,59.91-5.78,23.78-.2,41.26.19,46.24.79,3,.2,6.96.2,11.03.2l-.88-16.78,6.03,2.48-1.55,5.9c1.63,1.63,3.22,3.21,5.03,4.62,1.81,1.4,3.79,2.59,6,4.61,9,10.01,14.59,20.26,22.19,26.78,11.23,9.64,22.29,32.53,25.96,25.71.79-1.47.44-7.05,1.4-13.25,3.4-21.73,7.79-38.67,12.8-54.52,3.79-11.99,5.75-20.85,8.19-31.77,2.01-9.01,4.73-20.14,4.59-31.21-.21-16.96,4.87-44.08-4.02-39.91Z"/>
  <path class="cls-1" d="M391.08,132.85c1.19,3.98,5.97,12.74,10.58,22.75,6.42,13.97,1.03,36.76-4.36,46.77-5.8,10.4-12.98,20.78-19.39,26.4-1.61,1.21-3.19,2.39-9.62,6.01"/>
</svg>